<svg width="359" height="173" viewBox="0 0 359 173" fill="none" xmlns="http://www.w3.org/2000/svg">
<g filter="url(#filter0_d_76_2709)">
<path fill-rule="evenodd" clip-rule="evenodd" d="M16 4C10.4772 4 6 8.47715 6 14V78.6534C6.07015 78.6947 6.13747 78.7459 6.20047 78.8077L11.2729 83.7863C11.6722 84.1782 11.6722 84.8216 11.2729 85.2136L6.20047 90.1921C6.13747 90.254 6.07015 90.3052 6 90.3465V155C6 160.523 10.4771 165 16 165H343C348.523 165 353 160.509 353 154.986V90.3465C352.93 90.3052 352.863 90.254 352.8 90.1921L347.727 85.2136C347.328 84.8216 347.328 84.1782 347.727 83.7863L352.8 78.8077C352.863 78.7459 352.93 78.6947 353 78.6534V14.0141C353 8.49122 348.523 4 343 4H16Z" fill="white"/>
</g>
<mask id="path-2-inside-1_76_2709" fill="white">
<path fill-rule="evenodd" clip-rule="evenodd" d="M6 14C6 8.47716 10.4772 4 16 4H343C348.523 4 353 8.49108 353 14.0139V79.3504C352.938 79.3867 352.879 79.4307 352.822 79.4828L347.797 84.116C347.368 84.5121 347.368 85.1904 347.797 85.5864L352.822 90.2196C352.879 90.2717 352.938 90.3157 353 90.352V154.69C353 160.213 348.523 164.704 343 164.704H16C10.4771 164.704 6 160.227 6 154.704V90.352C6.06172 90.3157 6.12134 90.2717 6.17788 90.2196L11.2027 85.5864C11.6322 85.1904 11.6322 84.5121 11.2027 84.116L6.17788 79.4828C6.12134 79.4307 6.06172 79.3867 6 79.3504V14Z"/>
</mask>
<path d="M353 79.3504L353.507 80.2126L354 79.9226V79.3504H353ZM352.822 79.4828L352.144 78.7476L352.144 78.7477L352.822 79.4828ZM347.797 84.116L347.119 83.3809L347.119 83.3809L347.797 84.116ZM347.797 85.5864L347.119 86.3215L347.119 86.3216L347.797 85.5864ZM352.822 90.2196L352.144 90.9547L352.144 90.9548L352.822 90.2196ZM353 90.352H354V89.7798L353.507 89.4899L353 90.352ZM6 90.352L5.49321 89.4899L5 89.7799V90.352H6ZM6.17788 90.2196L5.5 89.4844L5.49997 89.4844L6.17788 90.2196ZM11.2027 85.5864L10.5248 84.8512L10.5248 84.8512L11.2027 85.5864ZM11.2027 84.116L10.5248 84.8512L10.5248 84.8512L11.2027 84.116ZM6.17788 79.4828L5.49997 80.218L5.5 80.218L6.17788 79.4828ZM6 79.3504H5V79.9226L5.49321 80.2125L6 79.3504ZM16 3C9.92487 3 5 7.92488 5 14H7C7 9.02945 11.0294 5 16 5V3ZM343 3H16V5H343V3ZM354 14.0139C354 7.94061 349.077 3 343 3V5C347.969 5 352 9.04155 352 14.0139H354ZM354 79.3504V14.0139H352V79.3504H354ZM353.5 80.2181C353.505 80.2135 353.507 80.2122 353.507 80.2126L352.493 78.4883C352.369 78.5612 352.252 78.6479 352.144 78.7476L353.5 80.2181ZM348.475 84.8512L353.5 80.218L352.144 78.7477L347.119 83.3809L348.475 84.8512ZM348.475 84.8512V84.8512L347.119 83.3809C346.26 84.1729 346.26 85.5295 347.119 86.3215L348.475 84.8512ZM353.5 89.4844L348.475 84.8512L347.119 86.3216L352.144 90.9547L353.5 89.4844ZM353.507 89.4899C353.507 89.4902 353.505 89.4889 353.5 89.4843L352.144 90.9548C352.252 91.0545 352.369 91.1412 352.493 91.2141L353.507 89.4899ZM354 154.69V90.352H352V154.69H354ZM343 165.704C349.077 165.704 354 160.764 354 154.69H352C352 159.663 347.969 163.704 343 163.704V165.704ZM16 165.704H343V163.704H16V165.704ZM5 154.704C5 160.779 9.92486 165.704 16 165.704V163.704C11.0294 163.704 7 159.675 7 154.704H5ZM5 90.352V154.704H7V90.352H5ZM5.49997 89.4844C5.49519 89.4888 5.49283 89.4901 5.49321 89.4899L6.50679 91.214C6.63061 91.1413 6.7475 91.0546 6.85578 90.9547L5.49997 89.4844ZM10.5248 84.8512L5.5 89.4844L6.85576 90.9547L11.8806 86.3216L10.5248 84.8512ZM10.5248 84.8512L10.5248 84.8512L11.8806 86.3216C12.7396 85.5295 12.7396 84.1729 11.8806 83.3809L10.5248 84.8512ZM5.5 80.218L10.5248 84.8512L11.8806 83.3809L6.85576 78.7477L5.5 80.218ZM5.49321 80.2125C5.49283 80.2123 5.49519 80.2136 5.49997 80.218L6.85578 78.7477C6.7475 78.6478 6.63061 78.5612 6.50679 78.4884L5.49321 80.2125ZM5 14V79.3504H7V14H5Z" fill="#DF212D" mask="url(#path-2-inside-1_76_2709)"/>
<defs>
<filter id="filter0_d_76_2709" x="0" y="0" width="359" height="173" filterUnits="userSpaceOnUse" color-interpolation-filters="sRGB">
<feFlood flood-opacity="0" result="BackgroundImageFix"/>
<feColorMatrix in="SourceAlpha" type="matrix" values="0 0 0 0 0 0 0 0 0 0 0 0 0 0 0 0 0 0 127 0" result="hardAlpha"/>
<feOffset dy="2"/>
<feGaussianBlur stdDeviation="3"/>
<feColorMatrix type="matrix" values="0 0 0 0 0 0 0 0 0 0 0 0 0 0 0 0 0 0 0.15 0"/>
<feBlend mode="normal" in2="BackgroundImageFix" result="effect1_dropShadow_76_2709"/>
<feBlend mode="normal" in="SourceGraphic" in2="effect1_dropShadow_76_2709" result="shape"/>
</filter>
</defs>
</svg>
