<svg width="358" height="173" viewBox="0 0 358 173" fill="none" xmlns="http://www.w3.org/2000/svg">
<g filter="url(#filter0_d_76_2727)">
<path fill-rule="evenodd" clip-rule="evenodd" d="M16 4C10.4772 4 6 8.47715 6 14V78.6534C6.07015 78.6947 6.13747 78.7459 6.20047 78.8077L11.2729 83.7863C11.6722 84.1782 11.6722 84.8216 11.2729 85.2136L6.20047 90.1921C6.13747 90.254 6.07015 90.3052 6 90.3465V155C6 160.523 10.4772 165 16 165H342C347.523 165 352 160.509 352 154.986V90.3465C351.93 90.3052 351.863 90.254 351.8 90.1921L346.727 85.2136C346.328 84.8216 346.328 84.1782 346.727 83.7863L351.8 78.8077C351.863 78.7459 351.93 78.6947 352 78.6534V14.0141C352 8.49122 347.523 4 342 4H16Z" fill="white"/>
</g>
<mask id="mask0_76_2727" style="mask-type:alpha" maskUnits="userSpaceOnUse" x="6" y="4" width="346" height="161">
<path fill-rule="evenodd" clip-rule="evenodd" d="M16 4C10.4772 4 6 8.47715 6 14V78.6534C6.07015 78.6947 6.13747 78.7459 6.20047 78.8077L11.2729 83.7863C11.6722 84.1782 11.6722 84.8216 11.2729 85.2136L6.20047 90.1921C6.13747 90.254 6.07015 90.3052 6 90.3465V155C6 160.523 10.4772 165 16 165H342C347.523 165 352 160.509 352 154.986V90.3465C351.93 90.3052 351.863 90.254 351.8 90.1921L346.727 85.2136C346.328 84.8216 346.328 84.1782 346.727 83.7863L351.8 78.8077C351.863 78.7459 351.93 78.6947 352 78.6534V14.0141C352 8.49122 347.523 4 342 4H16Z" fill="white"/>
</mask>
<g mask="url(#mask0_76_2727)">
<path d="M6 14C6 8.47715 10.4772 4 16 4H342C347.523 4 352 8.49122 352 14.0141C352 67.5248 352 101.475 352 154.986C352 160.509 347.523 165 342 165H16C10.4772 165 6 160.523 6 155V14Z" fill="white"/>
</g>
<defs>
<filter id="filter0_d_76_2727" x="0" y="0" width="358" height="173" filterUnits="userSpaceOnUse" color-interpolation-filters="sRGB">
<feFlood flood-opacity="0" result="BackgroundImageFix"/>
<feColorMatrix in="SourceAlpha" type="matrix" values="0 0 0 0 0 0 0 0 0 0 0 0 0 0 0 0 0 0 127 0" result="hardAlpha"/>
<feOffset dy="2"/>
<feGaussianBlur stdDeviation="3"/>
<feColorMatrix type="matrix" values="0 0 0 0 0 0 0 0 0 0 0 0 0 0 0 0 0 0 0.15 0"/>
<feBlend mode="normal" in2="BackgroundImageFix" result="effect1_dropShadow_76_2727"/>
<feBlend mode="normal" in="SourceGraphic" in2="effect1_dropShadow_76_2727" result="shape"/>
</filter>
</defs>
</svg>
